#!OML:ASF F:\VICON\USERDATA\INSTALL\rory3\rory3.ASF
:FULLY-SPECIFIED
:DEGREES
3805
root -14.5988 17.6881 14.4631 357.085 -17.7721 363.02
lowerback 10.5103 2.78377 1.22666
upperback 1.50569 3.80165 -0.516545
thorax -4.19671 1.85535 -1.75198
lowerneck -10.3492 -0.349459 -11.9825
upperneck 42.8351 0.909034 4.51332
head 17.481 -1.03256 4.40308
rclavicle -3.55825e-014 -4.77083e-015
rhumerus -35.2765 -11.6684 -79.5362
rradius 36.1282
rwrist 4.01796
rhand -14.3964 10.6016
rfingers 7.12502
rthumb 11.7469 -19.049
lclavicle -3.55825e-014 -4.77083e-015
lhumerus -39.7609 13.3337 73.9062
lradius 39.5545
lwrist 0.6872
lhand -20.2121 24.0176
lfingers 7.12502
lthumb 6.13509 53.9088
rfemur -8.73519 0.102578 17.1742
rtibia 34.2053
rfoot -19.4053 1.84433
rtoes -0.305703
lfemur -13.1103 -9.12879 -20.2591
ltibia 27.7115
lfoot -14.6 -10.6262
ltoes -12.6438
3806
root -14.6051 17.6912 14.4532 357.112 -17.2009 363.208
lowerback 10.5505 2.74238 1.12488
upperback 1.56616 3.73184 -0.585983
thorax -4.16026 1.82271 -1.75789
lowerneck -10.4509 -0.381602 -11.8733
upperneck 42.6473 0.911398 4.37425
head 17.4 -1.01763 4.31178
rclavicle -2.91716e-014 4.77083e-015
rhumerus -35.2318 -11.5851 -79.5573
rradius 36.303
rwrist 3.98556
rhand -14.4097 10.6428
rfingers 7.12502
rthumb 11.734 -19.0086
lclavicle -2.91716e-014 4.77083e-015
lhumerus -39.6674 13.2632 73.9525
lradius 39.1444
lwrist 0.540054
lhand -20.4022 24.1491
lfingers 7.12502
lthumb 5.95151 54.0455
rfemur -8.75604 -0.116101 16.9785
rtibia 34.1639
rfoot -19.3319 1.60549
rtoes -0.626008
lfemur -13.1764 -8.60727 -20.2944
ltibia 27.6852
lfoot -14.6943 -9.66458
ltoes -13.7742
3807
root -14.6109 17.6954 14.4408 357.062 -16.6197 363.262
lowerback 10.7573 2.69525 1.15594
upperback 1.62445 3.67162 -0.634456
thorax -4.21089 1.79155 -1.82698
lowerneck -10.7095 -0.43082 -11.7061
upperneck 42.741 0.883847 4.26915
head 17.5283 -1.01832 4.23968
rclavicle 1.963e-014 2.78299e-015
rhumerus -35.2446 -11.4187 -79.609
rradius 36.4608
rwrist 3.82067
rhand -14.4204 10.4628
rfingers 7.12502
rthumb 11.7238 -19.1891
lclavicle 1.963e-014 2.78299e-015
lhumerus -39.5178 13.1307 73.9656
lradius 38.6367
lwrist 0.247867
lhand -20.5755 23.5618
lfingers 7.12502
lthumb 5.78419 53.4628
rfemur -8.66705 -0.227026 16.9542
rtibia 34.1627
rfoot -19.2868 1.2496
rtoes -0.827178
lfemur -13.0923 -8.21965 -20.1722
ltibia 27.5616
lfoot -14.6948 -8.97208
ltoes -14.012
3808
root -14.6157 17.7014 14.4254 357.083 -15.9968 363.291
lowerback 10.9544 2.62781 1.15967
upperback 1.64762 3.58366 -0.639529
thorax -4.29851 1.74666 -1.83231
lowerneck -11.0521 -0.471406 -11.555
upperneck 42.9319 0.906226 4.12108
head 17.7335 -1.01266 4.16476
rclavicle -1.06847e-014 5.56597e-015
rhumerus -35.2402 -11.2767 -79.5954
rradius 36.546
rwrist 3.70426
rhand -14.4725 10.4256
rfingers 7.12502
rthumb 11.6735 -19.2292
lclavicle -1.06847e-014 5.56597e-015
lhumerus -39.4595 13.0979 73.9888
lradius 38.2694
lwrist -0.13045
lhand -20.8357 22.8553
lfingers 7.12502
lthumb 5.53298 52.7631
rfemur -8.65297 -0.339602 16.9673
rtibia 34.1692
rfoot -19.2791 0.757929
rtoes -1.35799
lfemur -13.0805 -7.99401 -19.9931
ltibia 27.3557
lfoot -14.5124 -8.54891
ltoes -13.5613
3809
root -14.6178 17.713 14.4149 357.109 -15.3394 363.456
lowerback 11.049 2.54756 1.01605
upperback 1.68151 3.46045 -0.645418
thorax -4.32822 1.68756 -1.74472
lowerneck -11.2196 -0.488558 -11.4978
upperneck 42.9395 0.956295 3.98717
head 17.7807 -0.997952 4.10442
rclavicle -9.19379e-015 9.14409e-015
rhumerus -35.2009 -11.1257 -79.5236
rradius 36.6442
rwrist 3.66035
rhand -14.7757 10.4523
rfingers 7.12502
rthumb 11.381 -19.2189
lclavicle -9.19379e-015 9.14409e-015
lhumerus -39.5335 13.1711 74.0635
lradius 38.0763
lwrist -0.443237
lhand -20.8747 23.1015
lfingers 7.12502
lthumb 5.49532 53.0103
rfemur -8.66817 -0.639697 16.7727
rtibia 34.1491
rfoot -19.2629 0.546059
rtoes -0.932503
lfemur -13.1132 -7.82818 -19.9577
ltibia 27.1532
lfoot -14.2388 -8.45953
ltoes -13.0183
3810
root -14.6201 17.7306 14.4075 357.061 -14.7198 363.594
lowerback 11.1724 2.46935 0.872195
upperback 1.75308 3.34169 -0.606107
thorax -4.33644 1.63129 -1.61049
lowerneck -11.347 -0.505927 -11.6252
upperneck 42.9816 0.986512 4.01759
head 17.838 -1.00152 4.15285
rclavicle -8.00108e-015 1.55052e-014
rhumerus -35.1876 -10.993 -79.3599
rradius 36.7722
rwrist 3.7811
rhand -14.9521 10.4702
rfingers 7.12502
rthumb 11.2109 -19.2102
lclavicle -8.00108e-015 1.55052e-014
lhumerus -39.644 13.3146 74.1668
lradius 37.919
lwrist -0.747988
lhand -20.783 23.3218
lfingers 7.12502
lthumb 5.58388 53.2282
rfemur -8.57203 -0.832512 16.6174
rtibia 34.0767
rfoot -19.1758 0.313954
rtoes -0.109788
lfemur -13.07 -7.67146 -19.8769
ltibia 27.0217
lfoot -14.1127 -8.55314
ltoes -13.3531
